<svg class="icon-svg" role="img" viewBox="0 0 512 513" xmlns="http://www.w3.org/2000/svg">
    <linearGradient id="a" x1="5.140625%" x2="108.986328%" y1="90.900391%" y2="-3.78125%">
        <stop offset="0" stop-color="#5522fa"/>
        <stop offset=".13" stop-color="#612af1"/>
        <stop offset=".37" stop-color="#7f3ed8"/>
        <stop offset=".68" stop-color="#b25faf"/>
        <stop offset="1" stop-color="#ec8580"/>
    </linearGradient>
    <g fill="none" transform="translate(0 .84)">
        <path d="m0 0h512v512h-512z" fill="url(#a)"/>
        <path fill="#fff" d="m232.26 439.450149c-27.58 0-53.9-11.000149-76.68-32.210149-28.72-26.73-44.2-61.54-50.87-79.91-8.16-22.48-14.1-50.89-6.31-63.23 2.657335-4.231635 7.344479-6.753728 12.34-6.64 8.2.08 18 6.24 29.8 18.85l.54.57c-5.563574-15.835417-9.909547-32.07264-13-48.57-4.53-25.41-3.74-45.32 2.18-54.62 3.91-6.15 9-6.82 11.72-6.67 8.2.44 16.22 6.67 39.73 49.44-3.865101-15.652-6.707772-31.538886-8.51-47.56-3.89-36.87 1.83-54.11 5.59-61.1 2.71-5 7.17-7.65 12.26-7.18 12.17 1.12 23.24 21.61 33.38 43.59 4.9 10.626667 10.12 23.096667 15.66 37.41-1.53-19.6-1.43-37 .31-52.24 4.1-35.59 16.29-49.32 23.19-54.34 3.805165-2.7527576 8.787028-3.2745583 13.08-1.37 10 4.14 20.94 21.38 32.57 51.25 10.156894 26.293713 17.722773 53.51614 22.59 81.28 12.07-13 27.73-22.62 42.64-25 13.55-2.12 25.19 2.15 32.77 12 26.11 34-4.07 122-34 189.88-.856449 1.941558-2.449209 3.463294-4.42779 4.230346s-4.180857.716567-6.12221-.140346c-4.03753-1.783443-5.867754-6.499962-4.09-10.54 55.73-126.45 43.69-163.58 35.93-173.68-4-5.24-9.78-7.19-17.61-6-14.9 2.32-31.93 15.43-41.8 31 4.81 34.51 6.83 62.76 6 84.14-.92 24-5.38 39.91-13.61 48.64-5.140422 5.618905-12.664419 8.430641-20.23 7.56-6.121239-.497611-11.636101-3.890514-14.84-9.13-10.34-16.35-3.81-53.73 21.83-125 1.183372-3.25956 2.596933-6.430884 4.23-9.49-.566667-3.906667-1.176667-7.933333-1.83-12.08-4.67709-28.133551-12.212787-55.716415-22.49-82.32-10.94-28-19.15-38.55-22.57-41.27-7.3 6.92-33.64 42.95.11 183.63 1.00363 4.182057-1.478799 8.409255-5.62 9.57-4.144201 1.163215-8.465912-1.161141-9.78-5.26-38.61-120.7-58.27-151-64.9-158.36-3 8.41-4.86 24.57-2.33 48.51 3.9 36.88 16.75 83.36 38.2 138.13 1.565427 3.992689-.296014 8.50955-4.22 10.24-3.916965 1.72878-8.500695.067178-10.4-3.77-23.73-47.94-40.2-79.67-51.84-99.86-9.81-17-15.27-24.13-18.13-27.11-3.53 12.29-4.33 59.41 40.23 150.53 1.88263 3.843802.406379 8.488483-3.35 10.54-3.752242 2.047561-8.451255.783628-10.67-2.87-36.15-59.56-53.49-68.17-57.45-69.39-1.72 5.23-1 22.6 8.27 48.21 10.51 29 27.54 55.8 46.73 73.66 22.49 20.93 47.61 30.18 74.64 27.48 2.111129-.2122 4.220086.422947 5.862911 1.765713 1.642825 1.342765 2.684941 3.283153 2.897089 5.394287.212093 2.112699-.424404 4.223051-1.769276 5.866158s-3.287784 2.684167-5.400724 2.893842c-3.486667.44-6.963333.656667-10.43.650149zm90.49-181.000149c-5.06 14.81-10.22 31.12-13.91 46.32-8 32.92-4.66 43.1-2.86 45.94.572188 1.061898 1.6739 1.731341 2.88 1.75 2.626548.388204 5.26877-.596968 7-2.61 5.97-6.28 13.59-26.57 6.89-91.39z"/>
    </g>
</svg>
